<svg id="Layer_1" data-name="Layer 1" xmlns="http://www.w3.org/2000/svg" viewBox="0 0 566.93 680.31"><defs><style>.cls-1{fill:#fff;}</style></defs><title>defold-logo-outline-white</title><path class="cls-1" d="M222.88,609h48.43v14H239.25v15.07h26.07v13H239.2v25.11H222.83V609Zm-66.09,33.2h0v.2c0,9.73-3.48,18.09-10,24.14-6.87,6.31-16.72,9.65-28.47,9.65h-24V609.06h24.33C141.83,609,156.79,622.05,156.79,642.22Zm-16.86.3h0c0-11.92-8-19.34-20.94-19.34h-8.28v38.87H119c12.91,0,20.94-7.41,20.94-19.34Zm40.88,7.06h27.81V636.24H180.79V622.48h32.6V609H164.67v67.15H213.9V662.76H180.81Zm304.35-37.13L483,609h-1.95v8.13h1.75v-5.27l2.27,3.44,2.29-3.47v5.3h1.77V609h-2Zm-12.59,29.77h0v.2c0,9.73-3.48,18.09-10,24.14-6.87,6.31-16.72,9.65-28.48,9.65H410.05V609.06h24.33C457.61,609,472.57,622.05,472.57,642.22Zm-16.92.3c0-11.92-8-19.34-20.94-19.34h-8.29v38.87h8.29c12.91,0,20.94-7.41,20.94-19.34Zm17-31.86h2.48v6.48h1.79v-6.48h2.47V609H472.6ZM371.18,609h-16.4v67.15h45.6V662.25h-29.2Zm-26.34,34v.05h-.06a34.65,34.65,0,1,1-34.65-34.65h0A34.66,34.66,0,0,1,344.84,643.05Zm-16,9.07h-.05v-18a3.09,3.09,0,0,0-1.54-2.67l-15.57-9a3.12,3.12,0,0,0-3.1,0l-15.57,9a3.11,3.11,0,0,0-1.54,2.67v18a3.11,3.11,0,0,0,1.54,2.67l15.57,9a3.07,3.07,0,0,0,3.1,0l15.57-9A3.09,3.09,0,0,0,328.82,652.12ZM566.93,219.85V332.63L474,386.26V493.53l-97.67,56.39-92.9-53.63-92.89,53.62L92.9,493.52V386.26L0,332.63V219.85l92.9-53.63V59L190.57,2.56l92.89,53.63,92.9-53.63L474,59V166.22Zm-474,64.71L14.35,329.87l78.55,45.4ZM283.46,174.49l-83.33,48.12,83.33,48.11,83.34-48.11ZM195.36,107l78.55-45.35L195.36,16.34Zm0,220.07,83.34,48.12V279l-83.34-48.11ZM459.7,490.77l-92.9-53.63,92.9-53.64-83.34-48.12L283.46,389l-92.89-53.64L107.23,383.5l92.9,53.64-92.9,53.63,83.34,48.12,92.89-53.64,92.93,53.63Zm4.79-99-78.55,45.36,78.55,45.35Zm88.1-61.87L474,284.56v90.67Zm4.79-104.54-92.89-53.64V64.46l-83.35-48.1V123.63L288.24,70v96.23l92.91,53.62V327.1l83.34,48.12V268l92.87,53.58h0Z"/></svg>