<svg id="Layer_1" data-name="Layer 1" xmlns="http://www.w3.org/2000/svg" viewBox="0 0 1920 1080"><defs><style>.cls-1{fill:#f0f2f6;}.cls-2{fill:#15244a;}</style></defs><title>Defold-logotypes_RGB-Original_Illustrator</title><rect class="cls-1" width="1916.66" height="1080"/><path class="cls-2" d="M1154.14,380.4V270.18l-100.36-57.94-95.45,55.11-95.45-55.11L762.52,270.18V380.4l-95.45,55.11V551.39l95.45,55.11V716.71l100.36,57.94,95.45-55.11,95.45,55.11,100.36-57.94V606.5l95.45-55.11V435.51Zm-105.27-154v93.2L968.15,273ZM953.42,496.28v98.87l-85.63-49.44V446.85Zm95.45,49.44-85.63,49.44V496.28l85.63-49.44v98.87ZM948.51,273l-80.71,46.6v-93.2ZM676.9,540V441.18l95.45-55.11V275.85L858,226.42V336.63l95.45-55.11V380.4L858,435.5V545.72l-85.63,49.44V484.94Zm95.45,72.12,80.71,46.6-80.71,46.6v-93.2Zm372,93.2-80.71-46.6,80.71-46.6v93.2ZM1239.76,540l-95.45-55.11V595.15l-85.63-49.44V435.5L963.24,380.4V281.53l95.45,55.11V226.42l85.63,49.44V386.07l95.45,55.11V540Z"/><path class="cls-2" d="M1152.67,831.29h6.92V833H1157v6.65h-1.84V833h-2.54v-1.69Zm12.9,3.53-2.19-3.53h-2v8.35h1.8v-5.41l2.33,3.53h0l2.35-3.56v5.45h1.82v-8.35h-2ZM828.17,865.4v0.21c0,10-3.57,18.59-10.32,24.8-7.06,6.49-17.18,9.92-29.26,9.92H764v-69h25C812.8,831.29,828.17,844.68,828.17,865.4Zm-17.34.31c0-12.25-8.25-19.87-21.52-19.87H780.8v39.94h8.51c13.27,0,21.52-7.61,21.52-19.87v-0.21Zm42,7.26h28.6V859.26h-28.6V845.12h33.45V831.29H836.27v69h50.58V886.51h-34V873Zm43.2-41.68v69H912.9v-25.8h26.84V861.12H912.9V845.64h32.94V831.29H896.08Zm152.4,0h-16.82v69h46.85V886h-30v-54.7Zm104.16,34.11v0.21c0,10-3.57,18.59-10.32,24.8-7.06,6.49-17.18,9.92-29.26,9.92h-24.61v-69h25C1137.26,831.29,1152.64,844.68,1152.64,865.4Zm-17.34.31c0-12.25-8.25-19.87-21.52-19.87h-8.51v39.94h8.51c13.27,0,21.52-7.61,21.52-19.87v-0.21Zm-113.92.61a35.6,35.6,0,1,1-35.6-35.6A35.6,35.6,0,0,1,1021.39,866.32Zm-16.45,9.27V857.05a3.17,3.17,0,0,0-1.58-2.74l-16-9.26a3.17,3.17,0,0,0-3.18,0l-16,9.26a3.17,3.17,0,0,0-1.58,2.74v18.53a3.17,3.17,0,0,0,1.58,2.74l16,9.26a3.17,3.17,0,0,0,3.18,0l16-9.26A3.17,3.17,0,0,0,1004.93,875.58Z"/></svg>