<svg id="Layer_1" data-name="Layer 1" xmlns="http://www.w3.org/2000/svg" xmlns:xlink="http://www.w3.org/1999/xlink" viewBox="0 0 1920 1080"><defs><style>.cls-1{fill:#f0f2f6;}.cls-2{fill:#15244a;}.cls-3{fill:url(#linear-gradient);}.cls-4{fill:url(#linear-gradient-2);}</style><linearGradient id="linear-gradient" x1="809.95" y1="295.83" x2="1204.43" y2="522.32" gradientUnits="userSpaceOnUse"><stop offset="0" stop-color="#1c68ec"/><stop offset="1" stop-color="#00e9df"/></linearGradient><linearGradient id="linear-gradient-2" x1="680.88" y1="332.75" x2="1052.87" y2="547.24" gradientUnits="userSpaceOnUse"><stop offset="0" stop-color="#ff3c2a"/><stop offset="1" stop-color="#ffd215"/></linearGradient></defs><title>Defold-logotypes_RGB-Original_Illustrator</title><rect class="cls-1" width="1916.66" height="1080"/><path class="cls-2" d="M1152.67,829.39h6.92v1.69H1157v6.65h-1.84v-6.65h-2.54v-1.69Zm12.9,3.53-2.19-3.53h-2v8.35h1.8v-5.41l2.33,3.53h0l2.35-3.56v5.45h1.82v-8.35h-2ZM828.17,863.5v0.21c0,10-3.57,18.59-10.32,24.8-7.06,6.49-17.18,9.92-29.26,9.92H764v-69h25C812.8,829.39,828.17,842.78,828.17,863.5Zm-17.34.31c0-12.25-8.25-19.87-21.52-19.87H780.8v39.94h8.51c13.27,0,21.52-7.61,21.52-19.87v-0.21Zm42,7.26h28.6V857.36h-28.6V843.22h33.45V829.39H836.27v69h50.58V884.61h-34V871.07Zm43.2-41.68v69H912.9v-25.8h26.84V859.22H912.9V843.74h32.94V829.39H896.08Zm152.4,0h-16.82v69h46.85V884.09h-30v-54.7Zm104.16,34.11v0.21c0,10-3.57,18.59-10.32,24.8-7.06,6.49-17.18,9.92-29.26,9.92h-24.61v-69h25C1137.26,829.39,1152.64,842.78,1152.64,863.5Zm-17.34.31c0-12.25-8.25-19.87-21.52-19.87h-8.51v39.94h8.51c13.27,0,21.52-7.61,21.52-19.87v-0.21Zm-113.92.61a35.6,35.6,0,1,1-35.6-35.6A35.6,35.6,0,0,1,1021.39,864.42Zm-16.45,9.27V855.15a3.17,3.17,0,0,0-1.58-2.74l-16-9.26a3.17,3.17,0,0,0-3.18,0l-16,9.26a3.17,3.17,0,0,0-1.58,2.74v18.53a3.17,3.17,0,0,0,1.58,2.74l16,9.26a3.17,3.17,0,0,0,3.18,0l16-9.26A3.17,3.17,0,0,0,1004.93,873.68Z"/><path class="cls-2" d="M1055.51,436.66l-97.18,56.1-97.18-56.1,97.18-56.1Zm97.18,56.1V605l97.18-56.1ZM666.8,548.87L764,605V492.76ZM958.33,717.18l97.18,56.1,97.18-56.1-97.18-56.1h0l97.18-56.1-97.18-56.1L958.33,605l-97.18-56.1L764,605l97.18,56.1h0L764,717.18l97.18,56.1Z"/><path class="cls-3" d="M1152.68,605V717.18l-97.18-56.1Zm-194.35,0V492.76l-97.18-56.1V548.87ZM861.15,212.24V324.45l97.18-56.1Zm291.53,168.31h0m-97.17,168.31,97.18,56.1V492.76l97.18,56.1V436.66l-97.18-56.1V268.35h0l-97.17-56.1V324.45l-97.17-56.1V380.55l97.18,56.1V548.87Z"/><path class="cls-4" d="M958.33,605V492.76l97.18-56.1V548.87Zm0-336.63,97.18,56.1V212.24ZM764,380.55h0m97.17,56.1,97.18-56.1V268.35l-97.17,56.1V212.24L764,268.35h0V380.55l-97.18,56.1V548.87L764,492.76V605l97.18-56.1V436.66ZM764,605V717.18l97.18-56.1Z"/></svg>