<svg id="Layer_1" data-name="Layer 1" xmlns="http://www.w3.org/2000/svg" viewBox="0 0 566.93 680.31"><defs><style>.cls-1{fill:#15244a;}</style></defs><title>defold-logo-outline-dark</title><path class="cls-1" d="M474,168.21V60.94L376.36,4.55l-92.9,53.63L190.57,4.55,92.9,60.94V168.21L0,221.84V334.62l92.9,53.63V495.52l97.67,56.38,92.89-53.63,92.9,53.63L474,495.52V388.25l92.9-53.63V221.84ZM371.58,18.33V109L293,63.68ZM278.69,281v96.23l-83.34-48.12V232.88Zm92.89,48.12-83.34,48.12V281l83.34-48.11v96.22ZM273.91,63.68,195.36,109V18.33ZM9.57,323.53V227.36l92.89-53.64V66.45l83.36-48.1V125.61L278.72,72v96.24l-92.9,53.62V329.1l-83.34,48.12V270Zm92.89,70.19L181,439.08l-78.55,45.35V393.72Zm362.05,90.71L386,439.08l78.55-45.36v90.71Zm92.85-160.9L464.47,269.9V377.21l-83.34-48.12V221.83l-92.89-53.62V72l92.9,53.64V18.35l83.34,48.11V173.72l92.89,53.64v96.17ZM472.6,607h6.74v1.66h-2.52v6.47H475v-6.47h-2.48v-1.64Zm12.56,3.43L483,607h-1.95v8.12h1.75v-5.26l2.27,3.44h0l2.29-3.47v5.3h1.77V607h-2ZM156.79,640.23v.2c0,9.73-3.48,18.09-10,24.14-6.87,6.31-16.72,9.65-28.47,9.65H94.34V607.07h24.33C141.83,607,156.79,620.06,156.79,640.23Zm-16.88.3c0-11.92-8-19.34-20.94-19.34h-8.28v38.87H119c12.91,0,20.94-7.41,20.94-19.34v-.2Zm40.88,7.06h27.83V634.25H180.79V620.49h32.55V607H164.67v67.15H213.9V660.77H180.81V647.62Zm42-40.56v67.15h16.42V649.07h26.12v-13H239.25V621h32.06V607H222.83Zm148.32,0H354.78v67.15h45.6V660.27h-29.2V607Zm101.38,33.2v.2c0,9.73-3.48,18.09-10,24.14-6.87,6.31-16.72,9.65-28.48,9.65H410.05V607.07h24.33c23.23,0,38.19,13,38.19,33.16Zm-16.88.3c0-11.92-8-19.34-20.94-19.34h-8.29v38.87h8.29c12.91,0,20.94-7.41,20.94-19.34v-.2Zm-110.87.59a34.65,34.65,0,1,1-34.65-34.65h0a34.66,34.66,0,0,1,34.71,34.59v.06Zm-16,9v-18a3.09,3.09,0,0,0-1.54-2.67l-15.57-9a3.12,3.12,0,0,0-3.1,0l-15.57,9a3.11,3.11,0,0,0-1.54,2.67v18A3.11,3.11,0,0,0,293,652.8l15.57,9a3.07,3.07,0,0,0,3.1,0l15.57-9a3.09,3.09,0,0,0,1.59-2.67Z"/></svg>