<svg id="Layer_1" data-name="Layer 1" xmlns="http://www.w3.org/2000/svg" xmlns:xlink="http://www.w3.org/1999/xlink" viewBox="0 0 1920 1080"><defs><style>.cls-1{fill:#121924;}.cls-2{fill:#15244a;}.cls-3{fill:url(#linear-gradient);}.cls-4{fill:url(#linear-gradient-2);}.cls-5{fill:#f0f2f6;}</style><linearGradient id="linear-gradient" x1="577.35" y1="475.73" x2="701.97" y2="547.28" gradientUnits="userSpaceOnUse"><stop offset="0" stop-color="#1c68ec"/><stop offset="1" stop-color="#00e9df"/></linearGradient><linearGradient id="linear-gradient-2" x1="536.57" y1="487.39" x2="654.09" y2="555.15" gradientUnits="userSpaceOnUse"><stop offset="0" stop-color="#ff3c2a"/><stop offset="1" stop-color="#ffd215"/></linearGradient></defs><title>Defold-logotypes_RGB-Original_Illustrator</title><rect class="cls-1" x="-1.67" width="1920" height="1080"/><path class="cls-2" d="M654.93,520.22l-30.7,17.72-30.7-17.72,30.7-17.72Zm30.7,17.72v35.45l30.7-17.72Zm-153.5,17.72,30.7,17.72V537.94Zm92.1,53.17,30.7,17.72,30.7-17.72-30.7-17.72h0l30.7-17.72-30.7-17.72-30.7,17.72-30.7-17.72-30.7,17.72,30.7,17.72h0l-30.7,17.72,30.7,17.72Z"/><path class="cls-3" d="M685.62,573.39v35.45l-30.7-17.72Zm-61.4,0V537.94l-30.7-17.72v35.45Zm-30.7-124.07v35.45L624.23,467Zm92.1,53.17h0m-30.7,53.17,30.7,17.72V537.94l30.7,17.72V520.22l-30.7-17.72V467h0l-30.7-17.72v35.45L624.23,467v35.45l30.7,17.72v35.45Z"/><path class="cls-4" d="M624.23,573.39V537.94l30.7-17.72v35.45Zm0-106.35,30.7,17.72V449.32Zm-61.4,35.45h0m30.7,17.72,30.7-17.72V467l-30.7,17.72V449.32L562.83,467h0v35.45l-30.7,17.72v35.45l30.7-17.72v35.45l30.7-17.72V520.22Zm-30.7,53.17v35.45l30.7-17.72Z"/><polygon class="cls-5" points="1358.52 487.89 1362.39 487.89 1362.39 498.02 1365.18 498.02 1365.18 487.89 1369.05 487.89 1369.05 485.31 1358.52 485.31 1358.52 487.89"/><polygon class="cls-5" points="1378.18 490.68 1374.83 485.31 1371.82 485.31 1371.82 498.02 1374.56 498.02 1374.56 489.78 1378.11 495.15 1378.18 495.15 1381.76 489.72 1381.76 498.02 1384.53 498.02 1384.53 485.31 1381.52 485.31 1378.18 490.68"/><path class="cls-5" d="M807.84,485.31H769.68V590.57h37.53c18.41,0,33.84-5.23,44.61-15.13,10.29-9.47,15.73-22.54,15.73-37.82v-0.31C867.55,505.72,844.11,485.31,807.84,485.31Zm33.28,52.79c0,18.68-12.57,30.29-32.81,30.29h-13V507.5h13c20.24,0,32.81,11.61,32.81,30.29v0.31Z"/><polygon class="cls-5" points="905.23 548.85 948.83 548.85 948.83 527.95 905.23 527.95 905.23 506.39 956.23 506.39 956.23 485.31 879.89 485.31 879.89 590.57 957.01 590.57 957.01 569.49 905.23 569.49 905.23 548.85"/><polygon class="cls-5" points="971.09 485.31 971.09 590.57 996.74 590.57 996.74 551.24 1037.66 551.24 1037.66 530.78 996.74 530.78 996.74 507.18 1046.95 507.18 1046.95 485.31 971.09 485.31"/><polygon class="cls-5" points="1203.45 485.31 1177.8 485.31 1177.8 590.57 1249.23 590.57 1249.23 568.7 1203.45 568.7 1203.45 485.31"/><path class="cls-5" d="M1302.54,485.31h-38.15V590.57h37.52c18.42,0,33.84-5.23,44.61-15.13,10.29-9.47,15.73-22.54,15.73-37.82v-0.31C1362.25,505.72,1338.81,485.31,1302.54,485.31Zm33.28,52.79c0,18.68-12.57,30.29-32.81,30.29h-13V507.5h13c20.24,0,32.81,11.61,32.81,30.29v0.31Z"/><path class="cls-5" d="M1107.86,484.43a54.28,54.28,0,1,0,54.28,54.28A54.28,54.28,0,0,0,1107.86,484.43ZM1134.64,557l-24.35,14.11a4.84,4.84,0,0,1-4.85,0L1081.08,557a4.84,4.84,0,0,1-2.41-4.18V524.58a4.84,4.84,0,0,1,2.41-4.18l24.35-14.11a4.84,4.84,0,0,1,4.85,0l24.35,14.11a4.84,4.84,0,0,1,2.41,4.18v28.26A4.84,4.84,0,0,1,1134.64,557Z"/></svg>