<svg id="Layer_1" data-name="Layer 1" xmlns="http://www.w3.org/2000/svg" xmlns:xlink="http://www.w3.org/1999/xlink" viewBox="0 0 1920 1080"><defs><style>.cls-1{fill:#121924;}.cls-2{fill:#f0f2f6;}.cls-3{fill:#15244a;}.cls-4{fill:url(#linear-gradient);}.cls-5{fill:url(#linear-gradient-2);}</style><linearGradient id="linear-gradient" x1="811.72" y1="282.17" x2="1206.2" y2="508.66" gradientUnits="userSpaceOnUse"><stop offset="0" stop-color="#1c68ec"/><stop offset="1" stop-color="#00e9df"/></linearGradient><linearGradient id="linear-gradient-2" x1="682.65" y1="319.09" x2="1054.64" y2="533.57" gradientUnits="userSpaceOnUse"><stop offset="0" stop-color="#ff3c2a"/><stop offset="1" stop-color="#ffd215"/></linearGradient></defs><title>Defold-logotypes_RGB-Original_Illustrator</title><rect class="cls-1" width="1920" height="1080"/><path class="cls-2" d="M1154.44,815.73h6.92v1.69h-2.54v6.65H1157v-6.65h-2.54v-1.69Zm12.9,3.53-2.19-3.53h-2v8.35h1.8v-5.41l2.33,3.53h0l2.35-3.56v5.45h1.82v-8.35h-2Zm-337.4,30.58V850c0,10-3.57,18.59-10.32,24.8-7.06,6.49-17.18,9.92-29.26,9.92H765.75v-69h25C814.57,815.73,829.94,829.12,829.94,849.84Zm-17.34.31c0-12.25-8.25-19.87-21.52-19.87h-8.51v39.94h8.51c13.27,0,21.52-7.61,21.52-19.87v-0.21Zm42,7.26h28.6V843.7h-28.6V829.56H888.1V815.73H838v69h50.58V870.95h-34V857.41Zm43.2-41.68v69h16.82V859h26.84V845.56H914.67V830.08h32.94V815.73H897.85Zm152.4,0h-16.82v69h46.85V870.43h-30v-54.7Zm104.16,34.11V850c0,10-3.57,18.59-10.32,24.8-7.06,6.49-17.18,9.92-29.26,9.92h-24.61v-69h25C1139,815.73,1154.41,829.12,1154.41,849.84Zm-17.34.31c0-12.25-8.25-19.87-21.52-19.87H1107v39.94h8.51c13.27,0,21.52-7.61,21.52-19.87v-0.21Zm-113.92.61a35.6,35.6,0,1,1-35.6-35.6A35.6,35.6,0,0,1,1023.16,850.76ZM1006.7,860V841.49a3.17,3.17,0,0,0-1.58-2.74l-16-9.26a3.17,3.17,0,0,0-3.18,0l-16,9.26a3.17,3.17,0,0,0-1.58,2.74V860a3.17,3.17,0,0,0,1.58,2.74L986,872a3.17,3.17,0,0,0,3.18,0l16-9.26A3.17,3.17,0,0,0,1006.7,860Z"/><path class="cls-3" d="M1057.28,423L960.1,479.1,862.93,423l97.18-56.1Zm97.18,56.1V591.31l97.18-56.1ZM668.57,535.2l97.18,56.1V479.1ZM960.1,703.52l97.18,56.1,97.18-56.1-97.18-56.1h0l97.18-56.1-97.18-56.1-97.18,56.1-97.18-56.1-97.18,56.1,97.18,56.1h0l-97.18,56.1,97.18,56.1Z"/><path class="cls-4" d="M1154.45,591.31V703.52l-97.18-56.1Zm-194.35,0V479.1L862.93,423V535.2ZM862.93,198.58V310.79l97.18-56.1Zm291.53,168.31h0M1057.28,535.2l97.18,56.1V479.1l97.18,56.1V423l-97.18-56.1V254.68h0l-97.17-56.1V310.79l-97.17-56.1V366.89l97.18,56.1V535.2Z"/><path class="cls-5" d="M960.1,591.31V479.1l97.18-56.1V535.2Zm0-336.63,97.18,56.1V198.58ZM765.75,366.89h0M862.93,423l97.18-56.1V254.68l-97.17,56.1V198.58l-97.17,56.1h0V366.89L668.57,423V535.2l97.18-56.1V591.31l97.18-56.1V423ZM765.75,591.31V703.52l97.18-56.1Z"/></svg>