<svg id="Layer_1" data-name="Layer 1" xmlns="http://www.w3.org/2000/svg" viewBox="0 0 1920 1080"><defs><style>.cls-1{fill:#121924;}.cls-2{fill:#f0f2f6;}</style></defs><title>Defold-logotypes_RGB-Original_Illustrator</title><rect class="cls-1" width="1916.66" height="1080"/><path class="cls-2" d="M1154.34,835.38h6.92v1.69h-2.54v6.65h-1.84v-6.65h-2.54v-1.69Zm12.9,3.53-2.19-3.53h-2v8.35h1.8v-5.41l2.33,3.53h0l2.35-3.56v5.45h1.82v-8.35h-2Zm-337.4,30.58v0.21c0,10-3.57,18.59-10.32,24.8-7.06,6.49-17.18,9.92-29.26,9.92H765.65v-69h25C814.47,835.38,829.84,848.77,829.84,869.49Zm-17.34.31c0-12.25-8.25-19.87-21.52-19.87h-8.51v39.94H791c13.27,0,21.52-7.61,21.52-19.87V869.8Zm42,7.26h28.6V863.35h-28.6V849.21H888V835.38H837.94v69h50.58V890.6h-34V877.06Zm43.2-41.68v69h16.82v-25.8h26.84V865.21H914.57V849.73h32.94V835.38H897.75Zm152.4,0h-16.82v69h46.85V890.08h-30v-54.7Zm104.16,34.11v0.21c0,10-3.57,18.59-10.32,24.8-7.06,6.49-17.18,9.92-29.26,9.92h-24.61v-69h25C1138.93,835.38,1154.31,848.77,1154.31,869.49Zm-17.34.31c0-12.25-8.25-19.87-21.52-19.87h-8.51v39.94h8.51c13.27,0,21.52-7.61,21.52-19.87V869.8Zm-113.92.61a35.6,35.6,0,1,1-35.6-35.6A35.6,35.6,0,0,1,1023.06,870.4Zm-16.45,9.27V861.14a3.17,3.17,0,0,0-1.58-2.74l-16-9.26a3.17,3.17,0,0,0-3.18,0l-16,9.26a3.17,3.17,0,0,0-1.58,2.74v18.53a3.17,3.17,0,0,0,1.58,2.74l16,9.26a3.17,3.17,0,0,0,3.18,0l16-9.26A3.17,3.17,0,0,0,1006.6,879.67Z"/><path class="cls-2" d="M1155.81,380.4V270.18l-100.36-57.94L960,267.35l-95.45-55.11L764.19,270.18V380.4l-95.45,55.11V551.39l95.45,55.11V716.71l100.36,57.94L960,719.55l95.45,55.11,100.36-57.94V606.5l95.45-55.11V435.51Zm-110.18,57.94L960,487.78l-85.63-49.44L960,388.9Zm-176.16,8.51,85.63,49.44v98.87l-85.63-49.44V446.85ZM950.18,273l-80.71,46.6v-93.2ZM683.48,548.55L764.19,502v93.2Zm372,214.76L960,708.21l-95.45,55.11-85.63-49.44,95.45-55.11-95.45-55.11,85.63-49.44L960,609.33l95.45-55.11,85.63,49.44-95.45,55.11,95.45,55.11ZM1146,705.37l-80.71-46.6,80.71-46.6v93.2Zm9.82-110.21V502l80.71,46.6ZM1241.43,540L1146,484.94V595.15l-85.63-49.44V435.5L964.91,380.4V281.53l95.45,55.11V226.42L1146,275.85V386.07l95.45,55.11V540Z"/></svg>