<svg id="Layer_1" data-name="Layer 1" xmlns="http://www.w3.org/2000/svg" viewBox="0 0 566.93 680.31"><defs><style>.cls-1{fill:#f0f2f6;}</style></defs><title>defold-logo-outline-lightgray</title><path class="cls-1" d="M472.6,609h6.74v1.64h-2.47v6.48h-1.79v-6.48H472.6Zm12.56,3.43L483,609h-1.95v8.13h1.75v-5.27l2.27,3.44h0l2.29-3.47v5.3h1.77V609h-2ZM156.79,642.22v.2c0,9.73-3.48,18.09-10,24.14-6.87,6.31-16.72,9.65-28.47,9.65h-24V609.06h24.33c23.18,0,38.14,13,38.14,33.16Zm-16.88.3c0-11.92-8-19.34-20.94-19.34h-8.28v38.87H119c12.91,0,20.94-7.41,20.94-19.34v-.19Zm40.88,7.06h27.83V636.24H180.79V622.48h32.6V609H164.67v67.15H213.9V662.76H180.81V649.58Zm42-40.56v67.15H239.2V651.06h26.12v-13H239.25V623h32.06V609H222.83Zm148.32,0H354.78v67.15h45.6V662.25h-29.2V609Zm101.38,33.2v.2c0,9.73-3.48,18.09-10,24.14-6.87,6.31-16.72,9.65-28.48,9.65H410.05V609.06h24.33c23.23,0,38.19,13,38.19,33.16Zm-16.88.3c0-11.92-8-19.34-20.94-19.34h-8.29v38.87h8.29c12.91,0,20.94-7.41,20.94-19.34v-.19Zm-110.87.59a34.65,34.65,0,1,1-34.65-34.65h0a34.66,34.66,0,0,1,34.71,34.59v.05Zm-16,9v-18a3.09,3.09,0,0,0-1.54-2.67l-15.57-9a3.12,3.12,0,0,0-3.1,0l-15.57,9a3.11,3.11,0,0,0-1.54,2.67v18a3.11,3.11,0,0,0,1.54,2.67l15.57,9a3.07,3.07,0,0,0,3.1,0l15.57-9a3.09,3.09,0,0,0,1.59-2.67Z"/><path class="cls-1" d="M474,166.22V59L376.36,2.56l-92.9,53.63L190.57,2.56,92.9,59V166.22L0,219.85V332.63l92.9,53.63V493.52l97.67,56.39,92.89-53.62,92.9,53.63L474,493.53V386.26l92.9-53.63V219.85ZM366.8,222.61l-83.34,48.11-83.33-48.11,83.33-48.12Zm-171.44,8.28L278.7,279v96.23l-83.34-48.12Zm78.55-169.2L195.36,107V16.34ZM14.35,329.87,92.9,284.56v90.71Zm362,209-92.93-53.63-92.89,53.64-83.34-48.12,92.9-53.63-92.9-53.64,83.34-48.12L283.46,389l92.9-53.64L459.7,383.5l-92.9,53.64,92.9,53.63Zm88.1-56.39-78.55-45.35,78.55-45.36v90.71ZM474,375.23V284.56l78.55,45.35Zm83.32-53.69L464.49,268V375.22L381.15,327.1V219.84l-92.91-53.62V70l92.9,53.64V16.36l83.35,48.1V171.73l92.89,53.64v96.17Z"/></svg>